<svg xmlns="http://www.w3.org/2000/svg" height="509pt" version="1.1" viewBox="0 -8 509.29119 509" width="509pt">
<g id="surface1">
<path d="M 428.179688 114.25 L 145.789062 114.25 L 381.273438 20.542969 C 386.703125 18.386719 389.34375 12.238281 387.191406 6.808594 C 385.035156 1.378906 378.886719 -1.261719 373.457031 0.890625 L 88.847656 114.25 L 80.820312 114.25 C 43.527344 114.25 0 135.378906 0 195.070312 L 0 413.121094 C 0 472.8125 43.527344 493.941406 80.820312 493.941406 L 428.179688 493.941406 C 465.472656 493.941406 509 472.8125 509 413.121094 L 509 195.175781 C 509.105469 135.484375 465.789062 114.25 428.179688 114.25 Z M 487.976562 413.121094 C 487.976562 467 445.71875 472.8125 428.285156 472.8125 L 80.820312 472.8125 C 62.859375 472.8125 21.128906 467 21.128906 413.121094 L 21.128906 195.175781 C 21.128906 141.296875 63.386719 135.484375 80.820312 135.484375 L 428.179688 135.484375 C 446.140625 135.484375 487.871094 141.296875 487.871094 195.175781 Z M 487.976562 413.121094 " style=" stroke:none;fill-rule:nonzero;fill:rgb(0%,0%,0%);fill-opacity:1;" />
<path d="M 104.589844 250.851562 L 404.410156 250.851562 C 410.242188 250.851562 414.976562 246.117188 414.976562 240.285156 L 414.976562 179.328125 C 414.976562 173.496094 410.242188 168.761719 404.410156 168.761719 L 104.589844 168.761719 C 98.757812 168.761719 94.023438 173.496094 94.023438 179.328125 L 94.023438 240.285156 C 94.023438 246.117188 98.757812 250.851562 104.589844 250.851562 Z M 393.847656 229.71875 L 319.15625 229.71875 L 319.15625 189.890625 L 393.847656 189.890625 Z M 115.152344 189.890625 L 298.027344 189.890625 L 298.027344 229.71875 L 115.152344 229.71875 Z M 115.152344 189.890625 " style=" stroke:none;fill-rule:nonzero;fill:rgb(0%,0%,0%);fill-opacity:1;" />
<path d="M 376.835938 286.664062 C 333.542969 286.664062 298.449219 321.757812 298.449219 365.050781 C 298.449219 408.347656 333.542969 443.441406 376.835938 443.441406 C 420.132812 443.441406 455.226562 408.347656 455.226562 365.050781 C 455.226562 321.757812 420.128906 286.664062 376.835938 286.664062 Z M 376.835938 422.3125 C 345.21875 422.3125 319.578125 396.671875 319.578125 365.050781 C 319.578125 333.433594 345.21875 307.792969 376.835938 307.792969 C 408.457031 307.792969 434.097656 333.433594 434.097656 365.050781 C 434.035156 396.652344 408.433594 422.25 376.835938 422.3125 Z M 376.835938 422.3125 " style=" stroke:none;fill-rule:nonzero;fill:rgb(0%,0%,0%);fill-opacity:1;" />
<path d="M 224.601562 359.875 C 202.257812 359.875 184.140625 377.996094 184.140625 400.335938 C 184.140625 422.683594 202.257812 440.800781 224.601562 440.800781 C 246.945312 440.800781 265.066406 422.679688 265.066406 400.335938 C 265.066406 377.984375 246.945312 359.875 224.601562 359.875 Z M 224.601562 419.566406 C 213.921875 419.566406 205.269531 410.914062 205.269531 400.234375 C 205.269531 389.550781 213.921875 380.898438 224.601562 380.898438 C 235.285156 380.898438 243.933594 389.550781 243.933594 400.234375 C 243.933594 410.902344 235.285156 419.566406 224.601562 419.566406 Z M 224.601562 419.566406 " style=" stroke:none;fill-rule:nonzero;fill:rgb(0%,0%,0%);fill-opacity:1;" />
<path d="M 119.800781 359.875 C 97.457031 359.875 79.339844 377.996094 79.339844 400.335938 C 79.339844 422.683594 97.457031 440.800781 119.800781 440.800781 C 142.144531 440.800781 160.261719 422.679688 160.261719 400.335938 C 160.265625 377.984375 142.144531 359.875 119.800781 359.875 Z M 119.800781 419.566406 C 109.121094 419.566406 100.46875 410.914062 100.46875 400.234375 C 100.46875 389.550781 109.121094 380.898438 119.800781 380.898438 C 130.480469 380.898438 139.132812 389.550781 139.132812 400.234375 C 139.132812 410.914062 130.480469 419.566406 119.800781 419.566406 Z M 119.800781 419.566406 " style=" stroke:none;fill-rule:nonzero;fill:rgb(0%,0%,0%);fill-opacity:1;" />
</g>
</svg>